<svg width="15" height="17" viewBox="0 0 15 17" fill="none" xmlns="http://www.w3.org/2000/svg">
<path d="M5 6.05322H7V8.05322H5V6.05322ZM8 6.05322H10V8.05322H8V6.05322ZM11 6.05322H13V8.05322H11V6.05322ZM2 12.0532H4V14.0532H2V12.0532ZM5 12.0532H7V14.0532H5V12.0532ZM8 12.0532H10V14.0532H8V12.0532ZM5 9.05322H7V11.0532H5V9.05322ZM8 9.05322H10V11.0532H8V9.05322ZM11 9.05322H13V11.0532H11V9.05322ZM2 9.05322H4V11.0532H2V9.05322ZM13 0.0532227V1.05322H11V0.0532227H4V1.05322H2V0.0532227H0V16.0532H15V0.0532227H13ZM14 15.0532H1V4.05322H14V15.0532Z" fill="#34C759"/>
</svg>
